<?xml version="1.0" encoding="UTF-8"?>
<svg viewBox="0 0 38.4 38.4" xmlns="http://www.w3.org/2000/svg">
  <path fill="#ff506e" d="M18.1,12.7c0-0.1-0.1-0.2-0.2-0.3c-0.3-0.2-0.6-0.1-0.9,0.1c-0.3,0.2-0.6,0.4-0.9,0.6 c-1.3,0.9-2.6,1.7-3.9,2.6c-0.8,0.6-1.6,1-2.4,1.6c-0.8,0.6-1.6,1-2.4,1.6C7.1,19,7,19.2,7,19.5c0.1,0.2,0.2,0.4,0.5,0.6 c0.8,0.5,1.5,1,2.3,1.5c0.9,0.6,1.8,1.2,2.7,1.8c1,0.7,2.1,1.4,3.1,2.1c0.6,0.3,1,0.6,1.6,0.9c0.3,0.2,0.8,0.1,0.9-0.3 c0.1-0.2,0.2-0.4,0.2-0.6c0-2,0-4,0-6.1c0-2,0-4-0.1-6.1C18.2,13.1,18.2,12.8,18.1,12.7z"/>
  <path fill="#ff506e" d="M28.3,12.4c-0.3,0.1-0.6,0.3-0.8,0.5c-1.2,0.8-2.3,1.6-3.5,2.4c-1,0.6-2,1.3-3,2c-0.8,0.6-1.6,1-2.3,1.6 c-0.4,0.3-0.5,0.9,0,1.2c0.4,0.3,0.9,0.6,1.3,0.9c1.1,0.7,2.1,1.5,3.2,2.2c1.2,0.8,2.3,1.6,3.5,2.4c0.5,0.3,1,0.7,1.6,1 c0.4,0.2,0.8,0,0.9-0.4c0-0.2,0.1-0.5,0.1-0.7c0-2,0-4,0-6.1c0-2,0-3.9,0-5.8c0-0.2,0-0.4,0-0.6C29.2,12.5,28.9,12.2,28.3,12.4z"/>
  <path fill="#ff506e" fill-rule="evenodd" clip-rule="evenodd" d="M19.2,0C8.6,0,0,8.6,0,19.1c0,10.6,8.6,19.2,19.2,19.2s19.2-8.6,19.2-19.1C38.4,8.6,29.8,0,19.2,0z M34.3,19.1 c0,8.3-6.8,15.1-15.1,15.1S4.1,27.5,4.1,19.1S10.9,4,19.2,4S34.3,10.8,34.3,19.1z"/>
</svg>
